#include "song_cantinaband.h"

// Cantina band
short int *melodyCantina = new short int[CANTINA_SOUND_LENGTH]{
    NOTE_B4,
    NOTE_E5,
    NOTE_B4,
    NOTE_E5,

    NOTE_B4,
    NOTE_E5,
    NOTE_B4,
    REST,
    NOTE_AS4,
    NOTE_B4,

    NOTE_B4,
    NOTE_AS4,
    NOTE_B4,
    NOTE_A4,
    REST,
    NOTE_GS4,
    NOTE_A4,
    NOTE_G4,

    NOTE_G4,
    NOTE_E4,

    NOTE_B4,
    NOTE_E5,
    NOTE_B4,
    NOTE_E5,

    NOTE_B4,
    NOTE_E5,
    NOTE_B4,
    REST,
    NOTE_AS4,
    NOTE_B4,

    NOTE_A4,
    NOTE_A4,
    NOTE_GS4,
    NOTE_A4,

    NOTE_D5,
    NOTE_C5,
    NOTE_B4,
    NOTE_A4,

    NOTE_B4,
    NOTE_E5,
    NOTE_B4,
    NOTE_E5,

    NOTE_B4,
    NOTE_E5,
    NOTE_B4,
    REST,
    NOTE_AS4,
    NOTE_B4,

    NOTE_D5,
    NOTE_D5,
    NOTE_B4,
    NOTE_A4,

    NOTE_G4,
    NOTE_E4,

    NOTE_E4,
    NOTE_G4,

    NOTE_B4,
    NOTE_D5,

    NOTE_F5,
    NOTE_E5,
    NOTE_AS4,
    NOTE_AS4,
    NOTE_B4,
    NOTE_G4,
};
uint8_t *durationsCantina = new uint8_t[CANTINA_SOUND_LENGTH]{
    4,
    4,
    4,
    4,
    8,
    4,
    8,
    8,
    8,
    8,
    8,
    8,
    8,
    8,
    8,
    8,
    8,
    8,
    4,
    2,
    4,
    4,
    4,
    4,
    8,
    4,
    8,
    8,
    8,
    8,
    4,
    4,
    8,
    4,
    8,
    4,
    4,
    4,
    4,
    4,
    4,
    4,
    8,
    4,
    8,
    8,
    8,
    8,
    4,
    4,
    8,
    4,
    4,
    2,
    2,
    2,
    2,
    2,
    4,
    4,
    8,
    8,
    4,
    4};
Song *cantinaband = new Song(melodyCantina, durationsCantina, CANTINA_SOUND_LENGTH);
