#include "song.h"
#include "pitches.h"

#pragma once

#define TAKE_ON_ME_SOUND_LENGTH 96
#define LULLABY_SOUND_LENGTH 54

// SIMPLE MELODY
int *melody = new int[8]{NOTE_C4, NOTE_G3, NOTE_G3, NOTE_A3, NOTE_G3, 0, NOTE_B3, NOTE_C4};
int *durations = new int[8]{4, 8, 8, 4, 4, 4, 4, 4};
Song *song = new Song(melody, durations, 8);

// TAKE ON ME
int *takeOnMeMelody = new int[TAKE_ON_ME_SOUND_LENGTH]{
    NOTE_FS5,
    NOTE_FS5,
    NOTE_D5,
    NOTE_B4,
    REST,
    NOTE_B4,
    REST,
    NOTE_E5,
    REST,
    NOTE_E5,
    REST,
    NOTE_E5,
    NOTE_GS5,
    NOTE_GS5,
    NOTE_A5,
    NOTE_B5,
    NOTE_A5,
    NOTE_A5,
    NOTE_A5,
    NOTE_E5,
    REST,
    NOTE_D5,
    REST,
    NOTE_FS5,
    REST,
    NOTE_FS5,
    REST,
    NOTE_FS5,
    NOTE_E5,
    NOTE_E5,
    NOTE_FS5,
    NOTE_E5,
    NOTE_FS5,
    NOTE_FS5,
    NOTE_D5,
    NOTE_B4,
    REST,
    NOTE_B4,
    REST,
    NOTE_E5,

    REST,
    NOTE_E5,
    REST,
    NOTE_E5,
    NOTE_GS5,
    NOTE_GS5,
    NOTE_A5,
    NOTE_B5,
    NOTE_A5,
    NOTE_A5,
    NOTE_A5,
    NOTE_E5,
    REST,
    NOTE_D5,
    REST,
    NOTE_FS5,
    REST,
    NOTE_FS5,
    REST,
    NOTE_FS5,
    NOTE_E5,
    NOTE_E5,
    NOTE_FS5,
    NOTE_E5,
    NOTE_FS5,
    NOTE_FS5,
    NOTE_D5,
    NOTE_B4,
    REST,
    NOTE_B4,
    REST,
    NOTE_E5,
    REST,
    NOTE_E5,
    REST,
    NOTE_E5,
    NOTE_GS5,
    NOTE_GS5,
    NOTE_A5,
    NOTE_B5,

    NOTE_A5,
    NOTE_A5,
    NOTE_A5,
    NOTE_E5,
    REST,
    NOTE_D5,
    REST,
    NOTE_FS5,
    REST,
    NOTE_FS5,
    REST,
    NOTE_FS5,
    NOTE_E5,
    NOTE_E5,
    NOTE_FS5,
    NOTE_E5,
};
int *takeOnMeDuration = new int[TAKE_ON_ME_SOUND_LENGTH]{8, 8, 8, 8, 8, 8, 8, 8, 8, 8, 8, 8, 8, 8, 8, 8, 8, 8, 8, 8, 8, 8, 8, 8, 8, 8, 8, 8, 8, 8, 8, 8, 8, 8, 8, 8, 8, 8, 8, 8, 8, 8, 8, 8, 8, 8, 8, 8, 8, 8, 8, 8, 8, 8, 8, 8, 8, 8, 8, 8, 8, 8, 8, 8, 8, 8, 8, 8, 8, 8, 8, 8, 8, 8, 8, 8, 8, 8, 8, 8, 8, 8, 8, 8, 8, 8, 8, 8, 8, 8, 8, 8, 8, 8, 8, 8};
Song *takeOnMe = new Song(takeOnMeMelody, takeOnMeDuration, TAKE_ON_ME_SOUND_LENGTH);

// BRAM'S LULLABY
int *lullabyMelody = new int[LULLABY_SOUND_LENGTH]{
    NOTE_G4,
    NOTE_G4,

    NOTE_AS4,
    NOTE_G4,
    NOTE_G4,

    NOTE_AS4,
    REST,
    NOTE_G4,
    NOTE_AS4,

    NOTE_DS5,
    NOTE_D5,
    NOTE_C5,

    NOTE_C5,
    NOTE_AS4,
    NOTE_F4,
    NOTE_G4,

    NOTE_GS4,
    NOTE_F4,
    NOTE_F4,
    NOTE_G4,

    NOTE_GS4,
    REST,
    NOTE_F4,
    NOTE_GS4,

    NOTE_D5,
    NOTE_C5,
    NOTE_AS4,
    NOTE_D5,

    NOTE_DS5,
    REST,
    NOTE_DS4,
    NOTE_DS4,

    NOTE_DS5,
    NOTE_C5,
    NOTE_GS4,

    NOTE_AS4,
    NOTE_G4,
    NOTE_DS4,

    NOTE_GS4,
    NOTE_AS4,
    NOTE_C5,

    NOTE_AS4,
    NOTE_DS4,
    NOTE_DS4,

    NOTE_DS5,
    NOTE_C5,
    NOTE_GS4,

    NOTE_AS4,
    NOTE_G4,
    NOTE_DS4,

    NOTE_AS4,
    NOTE_G4,
    NOTE_DS4,

    NOTE_DS4};
int *lullabyDuration = new int[LULLABY_SOUND_LENGTH]{
    4,
    4,
    -4,
    8,
    4,
    4,
    4,
    8,
    8,
    4,
    -4,
    8,
    4,
    4,
    8,
    8,
    4,
    4,
    8,
    8,
    4,
    4,
    8,
    8,
    8,
    8,
    4,
    4,
    4,
    4,
    8,
    8,
    2,
    8,
    8,
    2,
    8,
    8,
    4,
    4,
    4,
    2,
    8,
    8,
    2,
    8,
    8,
    2,
    8,
    8,
    4,
    4,
    4,
    2};
Song *lullaby = new Song(lullabyMelody, lullabyDuration, LULLABY_SOUND_LENGTH);
