#include "../song.h"
#include "../pitches.h"

#define BABYELEPHANTWALK_SOUND_LENGTH 68
#define BABYELEPHANTWALK_TEMPO 1500

// DEFAULT MELODY
int *babyelephantwalkMelody = new int[BABYELEPHANTWALK_SOUND_LENGTH]{
    NOTE_C4,
    NOTE_E4,
    NOTE_G4,
    NOTE_C5,
    NOTE_E5,
    NOTE_D5,
    NOTE_C5,
    NOTE_A4,
    NOTE_FS4,
    NOTE_G4,
    REST,
    REST,
    NOTE_C4,
    NOTE_E4,
    NOTE_G4,
    NOTE_C5,
    NOTE_E5,
    NOTE_D5,
    NOTE_C5,
    NOTE_A4,
    NOTE_G4,
    NOTE_A4,
    NOTE_DS4,
    NOTE_A4,
    NOTE_E4,
    NOTE_C4,
    REST,
    REST,
    NOTE_C4,
    NOTE_E4,
    NOTE_G4,
    NOTE_C5,
    NOTE_E5,
    NOTE_D5,
    NOTE_C5,
    NOTE_A4,
    NOTE_FS4,
    NOTE_G4,
    REST,
    REST,
    REST,
    NOTE_G4,
    NOTE_D5,
    NOTE_D5,
    NOTE_B4,
    NOTE_G4,
    REST,
    NOTE_G4,
    NOTE_C5,
    NOTE_C5,
    NOTE_AS4,
    NOTE_C5,
    NOTE_AS4,
    NOTE_G4,
    NOTE_F4,
    NOTE_DS4,
    NOTE_FS4,
    NOTE_FS4,
    NOTE_F4,
    NOTE_G4,
    NOTE_F4,
    NOTE_DS4,
    NOTE_C4,
    NOTE_G4,
    NOTE_AS4,
    NOTE_C5,
    REST,
    REST,
};
int *babyelephantwalkDurations = new int[BABYELEPHANTWALK_SOUND_LENGTH]{
    -8,
    16,
    8,
    8,
    8,
    8,
    8,
    8,
    8,
    8,
    4,
    2,
    -8,
    16,
    8,
    8,
    8,
    8,
    8,
    8,
    -2,
    8,
    1,
    8,
    8,
    8,
    4,
    2,
    -8,
    16,
    8,
    8,
    8,
    8,
    8,
    8,
    8,
    8,
    4,
    4,
    8,
    8,
    4,
    4,
    8,
    8,
    8,
    8,
    4,
    4,
    16,
    16,
    16,
    16,
    8,
    8,
    4,
    4,
    16,
    16,
    16,
    16,
    8,
    8,
    8,
    8,
    4,
    2,
};
Song *babyelephantwalkSong = new Song(babyelephantwalkMelody, babyelephantwalkDurations, BABYELEPHANTWALK_SOUND_LENGTH);
