#include "../song.h"
#include "../pitches.h"

#define GREENSLEEVES_LENGTH 136
#define GREENSLEEVES_TEMPO 1800

// GREENSLEEVES MELODY
int *greenSleevesMelody = new int[GREENSLEEVES_LENGTH]{
    NOTE_G4,
    NOTE_AS4,
    NOTE_C5,
    NOTE_D5,
    NOTE_DS5,
    NOTE_D5,
    NOTE_C5,
    NOTE_A4,
    NOTE_F4,
    NOTE_G4,
    NOTE_A4,
    NOTE_AS4,
    NOTE_G4,
    NOTE_G4,
    NOTE_FS4,
    NOTE_G4,
    NOTE_A4,
    NOTE_FS4,
    NOTE_D4,
    NOTE_G4,
    NOTE_AS4,
    NOTE_C5,
    NOTE_D5,
    NOTE_DS5,
    NOTE_D5,
    NOTE_C5,
    NOTE_A4,
    NOTE_F4,
    NOTE_G4,
    NOTE_A4,
    NOTE_AS4,
    NOTE_A4,
    NOTE_G4,
    NOTE_FS4,
    NOTE_E4,
    NOTE_FS4,
    NOTE_G4,
    NOTE_F5,
    NOTE_E5,
    NOTE_D5,
    NOTE_C5,
    NOTE_A4,
    NOTE_F4,
    NOTE_G4,
    NOTE_A4,
    NOTE_AS4,
    NOTE_G4,
    NOTE_G4,
    NOTE_FS4,
    NOTE_G4,
    NOTE_A4,
    NOTE_FS4,
    NOTE_D4,
    NOTE_F5,
    NOTE_E5,
    NOTE_D5,
    NOTE_C5,
    NOTE_A4,
    NOTE_F4,
    NOTE_G4,
    NOTE_A4,
    NOTE_AS4,
    NOTE_A4,
    NOTE_G4,
    NOTE_FS4,
    NOTE_E4,
    NOTE_FS4,
    NOTE_G4,
    NOTE_G4,
    NOTE_AS4,
    NOTE_C5,
    NOTE_D5,
    NOTE_DS5,
    NOTE_D5,
    NOTE_C5,
    NOTE_A4,
    NOTE_F4,
    NOTE_G4,
    NOTE_A4,
    NOTE_AS4,
    NOTE_G4,
    NOTE_G4,
    NOTE_FS4,
    NOTE_G4,
    NOTE_A4,
    NOTE_FS4,
    NOTE_D4,
    NOTE_G4,
    NOTE_AS4,
    NOTE_C5,
    NOTE_D5,
    NOTE_DS5,
    NOTE_D5,
    NOTE_C5,
    NOTE_A4,
    NOTE_F4,
    NOTE_G4,
    NOTE_A4,
    NOTE_AS4,
    NOTE_A4,
    NOTE_G4,
    NOTE_FS4,
    NOTE_E4,
    NOTE_FS4,
    NOTE_G4,
    NOTE_F5,
    NOTE_E5,
    NOTE_D5,
    NOTE_C5,
    NOTE_A4,
    NOTE_F4,
    NOTE_G4,
    NOTE_A4,
    NOTE_AS4,
    NOTE_G4,
    NOTE_G4,
    NOTE_FS4,
    NOTE_G4,
    NOTE_A4,
    NOTE_FS4,
    NOTE_D4,
    NOTE_F5,
    NOTE_E5,
    NOTE_D5,
    NOTE_C5,
    NOTE_A4,
    NOTE_F4,
    NOTE_G4,
    NOTE_A4,
    NOTE_AS4,
    NOTE_A4,
    NOTE_G4,
    NOTE_FS4,
    NOTE_E4,
    NOTE_FS4,
    NOTE_G4,
};
int *greenSleevesDurations = new int[GREENSLEEVES_LENGTH]{
    8,
    4,
    8,
    -8,
    16,
    8,
    4,
    8,
    -8,
    16,
    8,
    4,
    8,
    -8,
    16,
    8,
    4,
    8,
    4,
    8,
    4,
    8,
    -8,
    16,
    8,
    4,
    8,
    -8,
    16,
    8,
    -8,
    16,
    8,
    -8,
    16,
    8,
    -2,
    2,
    16,
    8,
    4,
    8,
    -8,
    16,
    8,
    4,
    8,
    -8,
    16,
    8,
    4,
    8,
    04,
    2,
    16,
    8,
    4,
    8,
    -8,
    16,
    8,
    -8,
    16,
    8,
    -8,
    16,
    8,
    -2,
    8,
    4,
    8,
    -8,
    16,
    8,
    4,
    8,
    -8,
    16,
    8,
    4,
    8,
    -8,
    16,
    8,
    4,
    8,
    4,
    8,
    4,
    8,
    -8,
    16,
    8,
    4,
    8,
    -8,
    16,
    8,
    -8,
    16,
    8,
    -8,
    16,
    8,
    -2,
    2,
    16,
    8,
    4,
    8,
    -8,
    16,
    8,
    4,
    8,
    -8,
    16,
    8,
    4,
    8,
    04,
    2,
    16,
    8,
    4,
    8,
    -8,
    16,
    8,
    -8,
    16,
    8,
    -8,
    16,
    8,
    -2

};
Song *greenSleevesSong = new Song(greenSleevesMelody, greenSleevesDurations, GREENSLEEVES_LENGTH);
