#include "../song.h"
#include "../pitches.h"

#define LULLABY_SOUND_LENGTH 54
#define LULLABY_TEMPO 1500

// BRAM'S LULLABY
int *lullabyMelody = new int[LULLABY_SOUND_LENGTH]{
    NOTE_G4,
    NOTE_G4,
    NOTE_AS4,
    NOTE_G4,
    NOTE_G4,
    NOTE_AS4,
    REST,
    NOTE_G4,
    NOTE_AS4,
    NOTE_DS5,
    NOTE_D5,
    NOTE_C5,
    NOTE_C5,
    NOTE_AS4,
    NOTE_F4,
    NOTE_G4,
    NOTE_GS4,
    NOTE_F4,
    NOTE_F4,
    NOTE_G4,
    NOTE_GS4,
    REST,
    NOTE_F4,
    NOTE_GS4,
    NOTE_D5,
    NOTE_C5,
    NOTE_AS4,
    NOTE_D5,
    NOTE_DS5,
    REST,
    NOTE_DS4,
    NOTE_DS4,
    NOTE_DS5,
    NOTE_C5,
    NOTE_GS4,
    NOTE_AS4,
    NOTE_G4,
    NOTE_DS4,
    NOTE_GS4,
    NOTE_AS4,
    NOTE_C5,
    NOTE_AS4,
    NOTE_DS4,
    NOTE_DS4,
    NOTE_DS5,
    NOTE_C5,
    NOTE_GS4,
    NOTE_AS4,
    NOTE_G4,
    NOTE_DS4,
    NOTE_AS4,
    NOTE_G4,
    NOTE_DS4,
    NOTE_DS4};
int *lullabyDuration = new int[LULLABY_SOUND_LENGTH]{
    4,
    4,
    -4,
    8,
    4,
    4,
    4,
    8,
    8,
    4,
    -4,
    8,
    4,
    4,
    8,
    8,
    4,
    4,
    8,
    8,
    4,
    4,
    8,
    8,
    8,
    8,
    4,
    4,
    4,
    4,
    8,
    8,
    2,
    8,
    8,
    2,
    8,
    8,
    4,
    4,
    4,
    2,
    8,
    8,
    2,
    8,
    8,
    2,
    8,
    8,
    4,
    4,
    4,
    2};
Song *lullaby = new Song(lullabyMelody, lullabyDuration, LULLABY_SOUND_LENGTH);
