#include "../song.h"
#include "../pitches.h"

#define TAKE_ON_ME_SOUND_LENGTH 96

// TAKE ON ME
int *takeOnMeMelody = new int[TAKE_ON_ME_SOUND_LENGTH]{
    NOTE_FS5,
    NOTE_FS5,
    NOTE_D5,
    NOTE_B4,
    REST,
    NOTE_B4,
    REST,
    NOTE_E5,
    REST,
    NOTE_E5,
    REST,
    NOTE_E5,
    NOTE_GS5,
    NOTE_GS5,
    NOTE_A5,
    NOTE_B5,
    NOTE_A5,
    NOTE_A5,
    NOTE_A5,
    NOTE_E5,
    REST,
    NOTE_D5,
    REST,
    NOTE_FS5,
    REST,
    NOTE_FS5,
    REST,
    NOTE_FS5,
    NOTE_E5,
    NOTE_E5,
    NOTE_FS5,
    NOTE_E5,
    NOTE_FS5,
    NOTE_FS5,
    NOTE_D5,
    NOTE_B4,
    REST,
    NOTE_B4,
    REST,
    NOTE_E5,
    REST,
    NOTE_E5,
    REST,
    NOTE_E5,
    NOTE_GS5,
    NOTE_GS5,
    NOTE_A5,
    NOTE_B5,
    NOTE_A5,
    NOTE_A5,
    NOTE_A5,
    NOTE_E5,
    REST,
    NOTE_D5,
    REST,
    NOTE_FS5,
    REST,
    NOTE_FS5,
    REST,
    NOTE_FS5,
    NOTE_E5,
    NOTE_E5,
    NOTE_FS5,
    NOTE_E5,
    NOTE_FS5,
    NOTE_FS5,
    NOTE_D5,
    NOTE_B4,
    REST,
    NOTE_B4,
    REST,
    NOTE_E5,
    REST,
    NOTE_E5,
    REST,
    NOTE_E5,
    NOTE_GS5,
    NOTE_GS5,
    NOTE_A5,
    NOTE_B5,

    NOTE_A5,
    NOTE_A5,
    NOTE_A5,
    NOTE_E5,
    REST,
    NOTE_D5,
    REST,
    NOTE_FS5,
    REST,
    NOTE_FS5,
    REST,
    NOTE_FS5,
    NOTE_E5,
    NOTE_E5,
    NOTE_FS5,
    NOTE_E5,
};
int *takeOnMeDuration = new int[TAKE_ON_ME_SOUND_LENGTH]{8, 8, 8, 8, 8, 8, 8, 8, 8, 8, 8, 8, 8, 8, 8, 8, 8, 8, 8, 8, 8, 8, 8, 8, 8, 8, 8, 8, 8, 8, 8, 8, 8, 8, 8, 8, 8, 8, 8, 8, 8, 8, 8, 8, 8, 8, 8, 8, 8, 8, 8, 8, 8, 8, 8, 8, 8, 8, 8, 8, 8, 8, 8, 8, 8, 8, 8, 8, 8, 8, 8, 8, 8, 8, 8, 8, 8, 8, 8, 8, 8, 8, 8, 8, 8, 8, 8, 8, 8, 8, 8, 8, 8, 8, 8, 8};
Song *takeOnMe = new Song(takeOnMeMelody, takeOnMeDuration, TAKE_ON_ME_SOUND_LENGTH);
